<?xml version="1.0" standalone="no"?>
<!DOCTYPE svg PUBLIC "-//W3C//DTD SVG 20010904//EN"
 "http://www.w3.org/TR/2001/REC-SVG-20010904/DTD/svg10.dtd">
<svg version="1.0" xmlns="http://www.w3.org/2000/svg"
 width="1280.000000pt" height="1280.000000pt" viewBox="0 0 1280.000000 1280.000000"
 preserveAspectRatio="xMidYMid meet">

<g transform="translate(0.000000,1280.000000) scale(0.100000,-0.100000)"
fill="#000000" stroke="none">
<path d="M3740 10930 l0 -1870 -1870 0 c-1029 0 -1870 -3 -1870 -7 0 -5 595
-603 1322 -1330 l1323 -1323 -1323 -1323 c-727 -727 -1322 -1325 -1322 -1330
0 -4 841 -7 1870 -7 l1870 0 0 -1870 c0 -1029 3 -1870 7 -1870 5 0 603 595
1330 1322 l1323 1323 1323 -1323 c727 -727 1325 -1322 1330 -1322 4 0 7 841 7
1870 l0 1870 1870 0 c1029 0 1870 3 1870 7 0 5 -595 603 -1322 1330 l-1323
1323 1323 1323 c727 727 1322 1325 1322 1330 0 4 -841 7 -1870 7 l-1870 0 0
1870 c0 1029 -3 1870 -7 1870 -5 0 -603 -595 -1330 -1322 l-1323 -1323 -1323
1323 c-727 727 -1325 1322 -1330 1322 -4 0 -7 -841 -7 -1870z m2662 -2662 l3
-1857 69 167 c38 92 90 219 116 282 26 63 141 340 255 615 114 275 244 590
290 700 108 262 580 1402 750 1810 128 309 227 549 540 1305 81 195 207 499
280 675 73 176 174 421 225 545 51 124 97 229 101 234 5 6 9 -795 9 -1849 l0
-1860 -1312 -1313 c-1193 -1193 -1308 -1311 -1263 -1294 28 11 433 178 900
372 468 194 1136 470 1485 615 349 145 1110 460 1690 700 1687 699 2210 915
2213 915 1 0 -590 -592 -1313 -1315 l-1315 -1315 -1860 0 -1860 -1 55 -23 c62
-26 1038 -430 2495 -1034 545 -226 1332 -552 1750 -725 418 -173 1046 -433
1395 -577 349 -145 639 -267 645 -271 5 -5 -801 -9 -1850 -9 l-1860 0 -1313
1313 c-1193 1192 -1311 1307 -1294 1262 11 -27 140 -340 287 -695 147 -355
305 -735 350 -845 46 -110 176 -425 290 -700 114 -275 222 -536 240 -580 18
-44 82 -199 143 -345 107 -257 560 -1350 727 -1755 46 -110 176 -425 290 -700
204 -492 275 -664 275 -668 0 -1 -592 590 -1315 1313 l-1315 1315 -2 1857 -3
1857 -69 -167 c-38 -92 -90 -219 -116 -282 -26 -63 -141 -340 -255 -615 -114
-275 -244 -590 -290 -700 -108 -262 -580 -1402 -750 -1810 -128 -309 -227
-549 -540 -1305 -81 -195 -207 -499 -280 -675 -73 -176 -174 -421 -225 -545
-51 -124 -97 -229 -101 -234 -5 -6 -9 795 -9 1849 l0 1860 1313 1313 c1192
1193 1307 1311 1262 1294 -27 -11 -432 -178 -900 -372 -467 -194 -1136 -470
-1485 -615 -349 -145 -1110 -460 -1690 -700 -1687 -699 -2210 -915 -2213 -915
-1 0 590 592 1313 1315 l1315 1315 1860 0 1860 1 -55 23 c-62 26 -1038 430
-2495 1034 -545 226 -1332 552 -1750 725 -418 173 -1046 433 -1395 577 -349
145 -639 267 -645 271 -5 5 801 9 1850 9 l1860 0 1313 -1312 c1193 -1193 1311
-1308 1294 -1263 -11 28 -140 340 -287 695 -147 355 -305 735 -350 845 -46
110 -176 425 -290 700 -114 275 -222 536 -240 580 -18 44 -82 199 -143 345
-107 257 -560 1350 -727 1755 -46 110 -176 425 -290 700 -204 492 -275 664
-275 668 0 1 592 -590 1315 -1313 l1315 -1315 2 -1857z"/>
</g>
</svg>
